<?xml version="1.0" standalone="no"?>
<!DOCTYPE svg PUBLIC "-//W3C//DTD SVG 20010904//EN"
 "http://www.w3.org/TR/2001/REC-SVG-20010904/DTD/svg10.dtd">
<svg version="1.0" xmlns="http://www.w3.org/2000/svg"
 width="1213.000000pt" height="1213.000000pt" viewBox="0 0 1213.000000 1213.000000"
 preserveAspectRatio="xMidYMid meet">
<metadata>
Created by potrace 1.16, written by Peter Selinger 2001-2019
</metadata>
<g transform="translate(0.000000,1213.000000) scale(0.100000,-0.100000)"
fill="#000000" stroke="none">
<path d="M0 6065 l0 -6065 6065 0 6065 0 0 6065 0 6065 -6065 0 -6065 0 0
-6065z m10897 2230 c388 -828 551 -1773 468 -2701 -133 -1476 -876 -2836
-2040 -3736 -796 -614 -1692 -975 -2715 -1094 -188 -21 -716 -30 -917 -15
-1543 118 -2905 842 -3839 2041 -125 160 -195 263 -187 271 5 4 543 321 1197
705 l1188 698 76 -85 c238 -266 492 -459 797 -609 584 -286 1225 -344 1842
-166 894 257 1586 992 1788 1896 47 210 59 323 59 555 1 345 -46 613 -158 909
-14 38 -25 70 -24 71 37 29 2395 1402 2398 1397 4 -4 34 -65 67 -137z m-4607
-416 c118 -14 284 -55 415 -104 832 -312 1321 -1195 1145 -2067 -155 -766
-772 -1345 -1549 -1454 -159 -22 -432 -15 -586 16 -493 98 -906 372 -1181 785
-131 196 -219 409 -272 655 -24 115 -26 143 -26 355 0 211 2 241 27 355 120
568 468 1025 972 1277 335 168 666 225 1055 182z"/>
<path d="M5895 7190 c-708 -110 -1140 -824 -909 -1499 114 -330 390 -601 720
-705 149 -46 182 -51 359 -50 151 0 181 4 268 27 200 54 356 140 499 275 114
109 177 193 238 317 94 189 126 343 117 563 -11 291 -120 537 -331 748 -162
162 -343 261 -569 310 -86 19 -308 27 -392 14z m305 -749 c118 -45 202 -136
240 -260 63 -201 -44 -415 -245 -493 -231 -89 -495 69 -536 320 -31 196 109
402 307 452 57 14 171 5 234 -19z"/>
</g>
</svg>
